<svg xmlns="http://www.w3.org/2000/svg" width="800" height="800" viewBox="0 0 800 800">
<rect width="800" height="800" fill="#e8c98a"/>
<line x1="24.000" y1="306.000" x2="24.000" y2="212.000" stroke="#5b4a2f" stroke-width="1.400" stroke-linecap="round"/>
<line x1="24.000" y1="306.000" x2="105.406" y2="353.000" stroke="#5b4a2f" stroke-width="1.400" stroke-linecap="round"/>
<line x1="24.000" y1="212.000" x2="105.406" y2="165.000" stroke="#5b4a2f" stroke-width="1.400" stroke-linecap="round"/>
<line x1="105.406" y1="165.000" x2="186.813" y2="212.000" stroke="#5b4a2f" stroke-width="1.400" stroke-linecap="round"/>
<line x1="24.000" y1="588.000" x2="24.000" y2="494.000" stroke="#5b4a2f" stroke-width="1.400" stroke-linecap="round"/>
<line x1="24.000" y1="588.000" x2="105.406" y2="635.000" stroke="#5b4a2f" stroke-width="1.400" stroke-linecap="round"/>
<line x1="24.000" y1="494.000" x2="105.406" y2="447.000" stroke="#5b4a2f" stroke-width="1.400" stroke-linecap="round"/>
<line x1="105.406" y1="447.000" x2="105.406" y2="353.000" stroke="#5b4a2f" stroke-width="1.400" stroke-linecap="round"/>
<line x1="105.406" y1="447.000" x2="186.813" y2="494.000" stroke="#5b4a2f" stroke-width="1.400" stroke-linecap="round"/>
<line x1="105.406" y1="353.000" x2="186.813" y2="306.000" stroke="#5b4a2f" stroke-width="1.400" stroke-linecap="round"/>
<line x1="186.813" y1="306.000" x2="186.813" y2="212.000" stroke="#5b4a2f" stroke-width="1.400" stroke-linecap="round"/>
<line x1="186.813" y1="306.000" x2="268.219" y2="353.000" stroke="#5b4a2f" stroke-width="1.400" stroke-linecap="round"/>
<line x1="186.813" y1="212.000" x2="268.219" y2="165.000" stroke="#5b4a2f" stroke-width="1.400" stroke-linecap="round"/>
<line x1="268.219" y1="165.000" x2="268.219" y2="71.000" stroke="#5b4a2f" stroke-width="1.400" stroke-linecap="round"/>
<line x1="268.219" y1="165.000" x2="349.626" y2="212.000" stroke="#5b4a2f" stroke-width="1.400" stroke-linecap="round"/>
<line x1="268.219" y1="71.000" x2="349.626" y2="24.000" stroke="#5b4a2f" stroke-width="1.400" stroke-linecap="round"/>
<line x1="349.626" y1="24.000" x2="431.032" y2="71.000" stroke="#5b4a2f" stroke-width="1.400" stroke-linecap="round"/>
<line x1="105.406" y1="635.000" x2="186.813" y2="588.000" stroke="#5b4a2f" stroke-width="1.400" stroke-linecap="round"/>
<line x1="186.813" y1="588.000" x2="186.813" y2="494.000" stroke="#5b4a2f" stroke-width="1.400" stroke-linecap="round"/>
<line x1="186.813" y1="588.000" x2="268.219" y2="635.000" stroke="#5b4a2f" stroke-width="1.400" stroke-linecap="round"/>
<line x1="186.813" y1="494.000" x2="268.219" y2="447.000" stroke="#5b4a2f" stroke-width="1.400" stroke-linecap="round"/>
<line x1="268.219" y1="447.000" x2="268.219" y2="353.000" stroke="#5b4a2f" stroke-width="1.400" stroke-linecap="round"/>
<line x1="268.219" y1="447.000" x2="349.626" y2="494.000" stroke="#5b4a2f" stroke-width="1.400" stroke-linecap="round"/>
<line x1="268.219" y1="353.000" x2="349.626" y2="306.000" stroke="#5b4a2f" stroke-width="1.400" stroke-linecap="round"/>
<line x1="349.626" y1="306.000" x2="349.626" y2="212.000" stroke="#5b4a2f" stroke-width="1.400" stroke-linecap="round"/>
<line x1="349.626" y1="306.000" x2="431.032" y2="353.000" stroke="#5b4a2f" stroke-width="1.400" stroke-linecap="round"/>
<line x1="349.626" y1="212.000" x2="431.032" y2="165.000" stroke="#5b4a2f" stroke-width="1.400" stroke-linecap="round"/>
<line x1="431.032" y1="165.000" x2="431.032" y2="71.000" stroke="#5b4a2f" stroke-width="1.400" stroke-linecap="round"/>
<line x1="431.032" y1="165.000" x2="512.438" y2="212.000" stroke="#5b4a2f" stroke-width="1.400" stroke-linecap="round"/>
<line x1="268.219" y1="729.000" x2="268.219" y2="635.000" stroke="#5b4a2f" stroke-width="1.400" stroke-linecap="round"/>
<line x1="268.219" y1="729.000" x2="349.626" y2="776.000" stroke="#5b4a2f" stroke-width="1.400" stroke-linecap="round"/>
<line x1="268.219" y1="635.000" x2="349.626" y2="588.000" stroke="#5b4a2f" stroke-width="1.400" stroke-linecap="round"/>
<line x1="349.626" y1="588.000" x2="349.626" y2="494.000" stroke="#5b4a2f" stroke-width="1.400" stroke-linecap="round"/>
<line x1="349.626" y1="588.000" x2="431.032" y2="635.000" stroke="#5b4a2f" stroke-width="1.400" stroke-linecap="round"/>
<line x1="349.626" y1="494.000" x2="431.032" y2="447.000" stroke="#5b4a2f" stroke-width="1.400" stroke-linecap="round"/>
<line x1="431.032" y1="447.000" x2="431.032" y2="353.000" stroke="#5b4a2f" stroke-width="1.400" stroke-linecap="round"/>
<line x1="431.032" y1="447.000" x2="512.438" y2="494.000" stroke="#5b4a2f" stroke-width="1.400" stroke-linecap="round"/>
<line x1="431.032" y1="353.000" x2="512.438" y2="306.000" stroke="#5b4a2f" stroke-width="1.400" stroke-linecap="round"/>
<line x1="512.438" y1="306.000" x2="512.438" y2="212.000" stroke="#5b4a2f" stroke-width="1.400" stroke-linecap="round"/>
<line x1="512.438" y1="306.000" x2="593.845" y2="353.000" stroke="#5b4a2f" stroke-width="1.400" stroke-linecap="round"/>
<line x1="512.438" y1="212.000" x2="593.845" y2="165.000" stroke="#5b4a2f" stroke-width="1.400" stroke-linecap="round"/>
<line x1="593.845" y1="165.000" x2="675.251" y2="212.000" stroke="#5b4a2f" stroke-width="1.400" stroke-linecap="round"/>
<line x1="349.626" y1="776.000" x2="431.032" y2="729.000" stroke="#5b4a2f" stroke-width="1.400" stroke-linecap="round"/>
<line x1="431.032" y1="729.000" x2="431.032" y2="635.000" stroke="#5b4a2f" stroke-width="1.400" stroke-linecap="round"/>
<line x1="431.032" y1="635.000" x2="512.438" y2="588.000" stroke="#5b4a2f" stroke-width="1.400" stroke-linecap="round"/>
<line x1="512.438" y1="588.000" x2="512.438" y2="494.000" stroke="#5b4a2f" stroke-width="1.400" stroke-linecap="round"/>
<line x1="512.438" y1="588.000" x2="593.845" y2="635.000" stroke="#5b4a2f" stroke-width="1.400" stroke-linecap="round"/>
<line x1="512.438" y1="494.000" x2="593.845" y2="447.000" stroke="#5b4a2f" stroke-width="1.400" stroke-linecap="round"/>
<line x1="593.845" y1="447.000" x2="593.845" y2="353.000" stroke="#5b4a2f" stroke-width="1.400" stroke-linecap="round"/>
<line x1="593.845" y1="447.000" x2="675.251" y2="494.000" stroke="#5b4a2f" stroke-width="1.400" stroke-linecap="round"/>
<line x1="593.845" y1="353.000" x2="675.251" y2="306.000" stroke="#5b4a2f" stroke-width="1.400" stroke-linecap="round"/>
<line x1="675.251" y1="306.000" x2="675.251" y2="212.000" stroke="#5b4a2f" stroke-width="1.400" stroke-linecap="round"/>
<line x1="593.845" y1="635.000" x2="675.251" y2="588.000" stroke="#5b4a2f" stroke-width="1.400" stroke-linecap="round"/>
<line x1="675.251" y1="588.000" x2="675.251" y2="494.000" stroke="#5b4a2f" stroke-width="1.400" stroke-linecap="round"/>
</svg>