<svg xmlns="http://www.w3.org/2000/svg" width="800" height="800" viewBox="0 0 800 800">
<rect width="800" height="800" fill="#e8c98a"/>
<line x1="24.000" y1="453.714" x2="24.000" y2="346.286" stroke="#5b4a2f" stroke-width="1.400" stroke-linecap="round"/>
<line x1="24.000" y1="453.714" x2="131.429" y2="453.714" stroke="#5b4a2f" stroke-width="1.400" stroke-linecap="round"/>
<line x1="24.000" y1="346.286" x2="131.429" y2="346.286" stroke="#5b4a2f" stroke-width="1.400" stroke-linecap="round"/>
<line x1="131.429" y1="668.571" x2="131.429" y2="561.143" stroke="#5b4a2f" stroke-width="1.400" stroke-linecap="round"/>
<line x1="131.429" y1="668.571" x2="238.857" y2="668.571" stroke="#5b4a2f" stroke-width="1.400" stroke-linecap="round"/>
<line x1="131.429" y1="561.143" x2="131.429" y2="453.714" stroke="#5b4a2f" stroke-width="1.400" stroke-linecap="round"/>
<line x1="131.429" y1="561.143" x2="238.857" y2="561.143" stroke="#5b4a2f" stroke-width="1.400" stroke-linecap="round"/>
<line x1="131.429" y1="453.714" x2="131.429" y2="346.286" stroke="#5b4a2f" stroke-width="1.400" stroke-linecap="round"/>
<line x1="131.429" y1="453.714" x2="238.857" y2="453.714" stroke="#5b4a2f" stroke-width="1.400" stroke-linecap="round"/>
<line x1="131.429" y1="346.286" x2="131.429" y2="238.857" stroke="#5b4a2f" stroke-width="1.400" stroke-linecap="round"/>
<line x1="131.429" y1="346.286" x2="238.857" y2="346.286" stroke="#5b4a2f" stroke-width="1.400" stroke-linecap="round"/>
<line x1="131.429" y1="238.857" x2="131.429" y2="131.429" stroke="#5b4a2f" stroke-width="1.400" stroke-linecap="round"/>
<line x1="131.429" y1="238.857" x2="238.857" y2="238.857" stroke="#5b4a2f" stroke-width="1.400" stroke-linecap="round"/>
<line x1="131.429" y1="131.429" x2="238.857" y2="131.429" stroke="#5b4a2f" stroke-width="1.400" stroke-linecap="round"/>
<line x1="238.857" y1="668.571" x2="238.857" y2="561.143" stroke="#5b4a2f" stroke-width="1.400" stroke-linecap="round"/>
<line x1="238.857" y1="668.571" x2="346.286" y2="668.571" stroke="#5b4a2f" stroke-width="1.400" stroke-linecap="round"/>
<line x1="238.857" y1="561.143" x2="238.857" y2="453.714" stroke="#5b4a2f" stroke-width="1.400" stroke-linecap="round"/>
<line x1="238.857" y1="561.143" x2="346.286" y2="561.143" stroke="#5b4a2f" stroke-width="1.400" stroke-linecap="round"/>
<line x1="238.857" y1="453.714" x2="238.857" y2="346.286" stroke="#5b4a2f" stroke-width="1.400" stroke-linecap="round"/>
<line x1="238.857" y1="453.714" x2="346.286" y2="453.714" stroke="#5b4a2f" stroke-width="1.400" stroke-linecap="round"/>
<line x1="238.857" y1="346.286" x2="238.857" y2="238.857" stroke="#5b4a2f" stroke-width="1.400" stroke-linecap="round"/>
<line x1="238.857" y1="346.286" x2="346.286" y2="346.286" stroke="#5b4a2f" stroke-width="1.400" stroke-linecap="round"/>
<line x1="238.857" y1="238.857" x2="238.857" y2="131.429" stroke="#5b4a2f" stroke-width="1.400" stroke-linecap="round"/>
<line x1="238.857" y1="238.857" x2="346.286" y2="238.857" stroke="#5b4a2f" stroke-width="1.400" stroke-linecap="round"/>
<line x1="238.857" y1="131.429" x2="346.286" y2="131.429" stroke="#5b4a2f" stroke-width="1.400" stroke-linecap="round"/>
<line x1="346.286" y1="776.000" x2="346.286" y2="668.571" stroke="#5b4a2f" stroke-width="1.400" stroke-linecap="round"/>
<line x1="346.286" y1="776.000" x2="453.714" y2="776.000" stroke="#5b4a2f" stroke-width="1.400" stroke-linecap="round"/>
<line x1="346.286" y1="668.571" x2="346.286" y2="561.143" stroke="#5b4a2f" stroke-width="1.400" stroke-linecap="round"/>
<line x1="346.286" y1="668.571" x2="453.714" y2="668.571" stroke="#5b4a2f" stroke-width="1.400" stroke-linecap="round"/>
<line x1="346.286" y1="561.143" x2="346.286" y2="453.714" stroke="#5b4a2f" stroke-width="1.400" stroke-linecap="round"/>
<line x1="346.286" y1="561.143" x2="453.714" y2="561.143" stroke="#5b4a2f" stroke-width="1.400" stroke-linecap="round"/>
<line x1="346.286" y1="453.714" x2="346.286" y2="346.286" stroke="#5b4a2f" stroke-width="1.400" stroke-linecap="round"/>
<line x1="346.286" y1="453.714" x2="453.714" y2="453.714" stroke="#5b4a2f" stroke-width="1.400" stroke-linecap="round"/>
<line x1="346.286" y1="346.286" x2="346.286" y2="238.857" stroke="#5b4a2f" stroke-width="1.400" stroke-linecap="round"/>
<line x1="346.286" y1="346.286" x2="453.714" y2="346.286" stroke="#5b4a2f" stroke-width="1.400" stroke-linecap="round"/>
<line x1="346.286" y1="238.857" x2="346.286" y2="131.429" stroke="#5b4a2f" stroke-width="1.400" stroke-linecap="round"/>
<line x1="346.286" y1="238.857" x2="453.714" y2="238.857" stroke="#5b4a2f" stroke-width="1.400" stroke-linecap="round"/>
<line x1="346.286" y1="131.429" x2="346.286" y2="24.000" stroke="#5b4a2f" stroke-width="1.400" stroke-linecap="round"/>
<line x1="346.286" y1="131.429" x2="453.714" y2="131.429" stroke="#5b4a2f" stroke-width="1.400" stroke-linecap="round"/>
<line x1="346.286" y1="24.000" x2="453.714" y2="24.000" stroke="#5b4a2f" stroke-width="1.400" stroke-linecap="round"/>
<line x1="453.714" y1="776.000" x2="453.714" y2="668.571" stroke="#5b4a2f" stroke-width="1.400" stroke-linecap="round"/>
<line x1="453.714" y1="668.571" x2="453.714" y2="561.143" stroke="#5b4a2f" stroke-width="1.400" stroke-linecap="round"/>
<line x1="453.714" y1="668.571" x2="561.143" y2="668.571" stroke="#5b4a2f" stroke-width="1.400" stroke-linecap="round"/>
<line x1="453.714" y1="561.143" x2="453.714" y2="453.714" stroke="#5b4a2f" stroke-width="1.400" stroke-linecap="round"/>
<line x1="453.714" y1="561.143" x2="561.143" y2="561.143" stroke="#5b4a2f" stroke-width="1.400" stroke-linecap="round"/>
<line x1="453.714" y1="453.714" x2="453.714" y2="346.286" stroke="#5b4a2f" stroke-width="1.400" stroke-linecap="round"/>
<line x1="453.714" y1="453.714" x2="561.143" y2="453.714" stroke="#5b4a2f" stroke-width="1.400" stroke-linecap="round"/>
<line x1="453.714" y1="346.286" x2="453.714" y2="238.857" stroke="#5b4a2f" stroke-width="1.400" stroke-linecap="round"/>
<line x1="453.714" y1="346.286" x2="561.143" y2="346.286" stroke="#5b4a2f" stroke-width="1.400" stroke-linecap="round"/>
<line x1="453.714" y1="238.857" x2="453.714" y2="131.429" stroke="#5b4a2f" stroke-width="1.400" stroke-linecap="round"/>
<line x1="453.714" y1="238.857" x2="561.143" y2="238.857" stroke="#5b4a2f" stroke-width="1.400" stroke-linecap="round"/>
<line x1="453.714" y1="131.429" x2="453.714" y2="24.000" stroke="#5b4a2f" stroke-width="1.400" stroke-linecap="round"/>
<line x1="453.714" y1="131.429" x2="561.143" y2="131.429" stroke="#5b4a2f" stroke-width="1.400" stroke-linecap="round"/>
<line x1="561.143" y1="668.571" x2="561.143" y2="561.143" stroke="#5b4a2f" stroke-width="1.400" stroke-linecap="round"/>
<line x1="561.143" y1="668.571" x2="668.571" y2="668.571" stroke="#5b4a2f" stroke-width="1.400" stroke-linecap="round"/>
<line x1="561.143" y1="561.143" x2="561.143" y2="453.714" stroke="#5b4a2f" stroke-width="1.400" stroke-linecap="round"/>
<line x1="561.143" y1="561.143" x2="668.571" y2="561.143" stroke="#5b4a2f" stroke-width="1.400" stroke-linecap="round"/>
<line x1="561.143" y1="453.714" x2="561.143" y2="346.286" stroke="#5b4a2f" stroke-width="1.400" stroke-linecap="round"/>
<line x1="561.143" y1="453.714" x2="668.571" y2="453.714" stroke="#5b4a2f" stroke-width="1.400" stroke-linecap="round"/>
<line x1="561.143" y1="346.286" x2="561.143" y2="238.857" stroke="#5b4a2f" stroke-width="1.400" stroke-linecap="round"/>
<line x1="561.143" y1="346.286" x2="668.571" y2="346.286" stroke="#5b4a2f" stroke-width="1.400" stroke-linecap="round"/>
<line x1="561.143" y1="238.857" x2="561.143" y2="131.429" stroke="#5b4a2f" stroke-width="1.400" stroke-linecap="round"/>
<line x1="561.143" y1="238.857" x2="668.571" y2="238.857" stroke="#5b4a2f" stroke-width="1.400" stroke-linecap="round"/>
<line x1="561.143" y1="131.429" x2="668.571" y2="131.429" stroke="#5b4a2f" stroke-width="1.400" stroke-linecap="round"/>
<line x1="668.571" y1="668.571" x2="668.571" y2="561.143" stroke="#5b4a2f" stroke-width="1.400" stroke-linecap="round"/>
<line x1="668.571" y1="561.143" x2="668.571" y2="453.714" stroke="#5b4a2f" stroke-width="1.400" stroke-linecap="round"/>
<line x1="668.571" y1="453.714" x2="668.571" y2="346.286" stroke="#5b4a2f" stroke-width="1.400" stroke-linecap="round"/>
<line x1="668.571" y1="453.714" x2="776.000" y2="453.714" stroke="#5b4a2f" stroke-width="1.400" stroke-linecap="round"/>
<line x1="668.571" y1="346.286" x2="668.571" y2="238.857" stroke="#5b4a2f" stroke-width="1.400" stroke-linecap="round"/>
<line x1="668.571" y1="346.286" x2="776.000" y2="346.286" stroke="#5b4a2f" stroke-width="1.400" stroke-linecap="round"/>
<line x1="668.571" y1="238.857" x2="668.571" y2="131.429" stroke="#5b4a2f" stroke-width="1.400" stroke-linecap="round"/>
<line x1="776.000" y1="453.714" x2="776.000" y2="346.286" stroke="#5b4a2f" stroke-width="1.400" stroke-linecap="round"/>
</svg>