<svg xmlns="http://www.w3.org/2000/svg" width="800" height="800" viewBox="0 0 800 800">
<rect width="800" height="800" fill="#e8c98a"/>
<line x1="24.000" y1="212.000" x2="78.271" y2="306.000" stroke="#5b4a2f" stroke-width="1.400" stroke-linecap="round"/>
<line x1="24.000" y1="212.000" x2="132.542" y2="212.000" stroke="#5b4a2f" stroke-width="1.400" stroke-linecap="round"/>
<line x1="24.000" y1="400.000" x2="78.271" y2="306.000" stroke="#5b4a2f" stroke-width="1.400" stroke-linecap="round"/>
<line x1="24.000" y1="400.000" x2="78.271" y2="494.000" stroke="#5b4a2f" stroke-width="1.400" stroke-linecap="round"/>
<line x1="24.000" y1="400.000" x2="132.542" y2="400.000" stroke="#5b4a2f" stroke-width="1.400" stroke-linecap="round"/>
<line x1="78.271" y1="306.000" x2="132.542" y2="212.000" stroke="#5b4a2f" stroke-width="1.400" stroke-linecap="round"/>
<line x1="78.271" y1="306.000" x2="132.542" y2="400.000" stroke="#5b4a2f" stroke-width="1.400" stroke-linecap="round"/>
<line x1="78.271" y1="306.000" x2="186.813" y2="306.000" stroke="#5b4a2f" stroke-width="1.400" stroke-linecap="round"/>
<line x1="132.542" y1="212.000" x2="186.813" y2="118.000" stroke="#5b4a2f" stroke-width="1.400" stroke-linecap="round"/>
<line x1="132.542" y1="212.000" x2="186.813" y2="306.000" stroke="#5b4a2f" stroke-width="1.400" stroke-linecap="round"/>
<line x1="132.542" y1="212.000" x2="241.084" y2="212.000" stroke="#5b4a2f" stroke-width="1.400" stroke-linecap="round"/>
<line x1="186.813" y1="118.000" x2="241.084" y2="212.000" stroke="#5b4a2f" stroke-width="1.400" stroke-linecap="round"/>
<line x1="186.813" y1="118.000" x2="295.355" y2="118.000" stroke="#5b4a2f" stroke-width="1.400" stroke-linecap="round"/>
<line x1="24.000" y1="588.000" x2="78.271" y2="494.000" stroke="#5b4a2f" stroke-width="1.400" stroke-linecap="round"/>
<line x1="24.000" y1="588.000" x2="132.542" y2="588.000" stroke="#5b4a2f" stroke-width="1.400" stroke-linecap="round"/>
<line x1="78.271" y1="494.000" x2="132.542" y2="400.000" stroke="#5b4a2f" stroke-width="1.400" stroke-linecap="round"/>
<line x1="78.271" y1="494.000" x2="132.542" y2="588.000" stroke="#5b4a2f" stroke-width="1.400" stroke-linecap="round"/>
<line x1="78.271" y1="494.000" x2="186.813" y2="494.000" stroke="#5b4a2f" stroke-width="1.400" stroke-linecap="round"/>
<line x1="132.542" y1="400.000" x2="186.813" y2="306.000" stroke="#5b4a2f" stroke-width="1.400" stroke-linecap="round"/>
<line x1="132.542" y1="400.000" x2="186.813" y2="494.000" stroke="#5b4a2f" stroke-width="1.400" stroke-linecap="round"/>
<line x1="132.542" y1="400.000" x2="241.084" y2="400.000" stroke="#5b4a2f" stroke-width="1.400" stroke-linecap="round"/>
<line x1="186.813" y1="306.000" x2="241.084" y2="212.000" stroke="#5b4a2f" stroke-width="1.400" stroke-linecap="round"/>
<line x1="186.813" y1="306.000" x2="241.084" y2="400.000" stroke="#5b4a2f" stroke-width="1.400" stroke-linecap="round"/>
<line x1="186.813" y1="306.000" x2="295.355" y2="306.000" stroke="#5b4a2f" stroke-width="1.400" stroke-linecap="round"/>
<line x1="241.084" y1="212.000" x2="295.355" y2="118.000" stroke="#5b4a2f" stroke-width="1.400" stroke-linecap="round"/>
<line x1="241.084" y1="212.000" x2="295.355" y2="306.000" stroke="#5b4a2f" stroke-width="1.400" stroke-linecap="round"/>
<line x1="241.084" y1="212.000" x2="349.626" y2="212.000" stroke="#5b4a2f" stroke-width="1.400" stroke-linecap="round"/>
<line x1="295.355" y1="118.000" x2="349.626" y2="24.000" stroke="#5b4a2f" stroke-width="1.400" stroke-linecap="round"/>
<line x1="295.355" y1="118.000" x2="349.626" y2="212.000" stroke="#5b4a2f" stroke-width="1.400" stroke-linecap="round"/>
<line x1="295.355" y1="118.000" x2="403.896" y2="118.000" stroke="#5b4a2f" stroke-width="1.400" stroke-linecap="round"/>
<line x1="349.626" y1="24.000" x2="403.896" y2="118.000" stroke="#5b4a2f" stroke-width="1.400" stroke-linecap="round"/>
<line x1="132.542" y1="588.000" x2="186.813" y2="494.000" stroke="#5b4a2f" stroke-width="1.400" stroke-linecap="round"/>
<line x1="132.542" y1="588.000" x2="186.813" y2="682.000" stroke="#5b4a2f" stroke-width="1.400" stroke-linecap="round"/>
<line x1="132.542" y1="588.000" x2="241.084" y2="588.000" stroke="#5b4a2f" stroke-width="1.400" stroke-linecap="round"/>
<line x1="186.813" y1="494.000" x2="241.084" y2="400.000" stroke="#5b4a2f" stroke-width="1.400" stroke-linecap="round"/>
<line x1="186.813" y1="494.000" x2="241.084" y2="588.000" stroke="#5b4a2f" stroke-width="1.400" stroke-linecap="round"/>
<line x1="186.813" y1="494.000" x2="295.355" y2="494.000" stroke="#5b4a2f" stroke-width="1.400" stroke-linecap="round"/>
<line x1="241.084" y1="400.000" x2="295.355" y2="306.000" stroke="#5b4a2f" stroke-width="1.400" stroke-linecap="round"/>
<line x1="241.084" y1="400.000" x2="295.355" y2="494.000" stroke="#5b4a2f" stroke-width="1.400" stroke-linecap="round"/>
<line x1="241.084" y1="400.000" x2="349.626" y2="400.000" stroke="#5b4a2f" stroke-width="1.400" stroke-linecap="round"/>
<line x1="295.355" y1="306.000" x2="349.626" y2="212.000" stroke="#5b4a2f" stroke-width="1.400" stroke-linecap="round"/>
<line x1="295.355" y1="306.000" x2="349.626" y2="400.000" stroke="#5b4a2f" stroke-width="1.400" stroke-linecap="round"/>
<line x1="295.355" y1="306.000" x2="403.896" y2="306.000" stroke="#5b4a2f" stroke-width="1.400" stroke-linecap="round"/>
<line x1="349.626" y1="212.000" x2="403.896" y2="118.000" stroke="#5b4a2f" stroke-width="1.400" stroke-linecap="round"/>
<line x1="349.626" y1="212.000" x2="403.896" y2="306.000" stroke="#5b4a2f" stroke-width="1.400" stroke-linecap="round"/>
<line x1="349.626" y1="212.000" x2="458.167" y2="212.000" stroke="#5b4a2f" stroke-width="1.400" stroke-linecap="round"/>
<line x1="403.896" y1="118.000" x2="458.167" y2="212.000" stroke="#5b4a2f" stroke-width="1.400" stroke-linecap="round"/>
<line x1="403.896" y1="118.000" x2="512.438" y2="118.000" stroke="#5b4a2f" stroke-width="1.400" stroke-linecap="round"/>
<line x1="186.813" y1="682.000" x2="241.084" y2="588.000" stroke="#5b4a2f" stroke-width="1.400" stroke-linecap="round"/>
<line x1="186.813" y1="682.000" x2="295.355" y2="682.000" stroke="#5b4a2f" stroke-width="1.400" stroke-linecap="round"/>
<line x1="241.084" y1="588.000" x2="295.355" y2="494.000" stroke="#5b4a2f" stroke-width="1.400" stroke-linecap="round"/>
<line x1="241.084" y1="588.000" x2="295.355" y2="682.000" stroke="#5b4a2f" stroke-width="1.400" stroke-linecap="round"/>
<line x1="241.084" y1="588.000" x2="349.626" y2="588.000" stroke="#5b4a2f" stroke-width="1.400" stroke-linecap="round"/>
<line x1="295.355" y1="494.000" x2="349.626" y2="400.000" stroke="#5b4a2f" stroke-width="1.400" stroke-linecap="round"/>
<line x1="295.355" y1="494.000" x2="349.626" y2="588.000" stroke="#5b4a2f" stroke-width="1.400" stroke-linecap="round"/>
<line x1="295.355" y1="494.000" x2="403.896" y2="494.000" stroke="#5b4a2f" stroke-width="1.400" stroke-linecap="round"/>
<line x1="349.626" y1="400.000" x2="403.896" y2="306.000" stroke="#5b4a2f" stroke-width="1.400" stroke-linecap="round"/>
<line x1="349.626" y1="400.000" x2="403.896" y2="494.000" stroke="#5b4a2f" stroke-width="1.400" stroke-linecap="round"/>
<line x1="349.626" y1="400.000" x2="458.167" y2="400.000" stroke="#5b4a2f" stroke-width="1.400" stroke-linecap="round"/>
<line x1="403.896" y1="306.000" x2="458.167" y2="212.000" stroke="#5b4a2f" stroke-width="1.400" stroke-linecap="round"/>
<line x1="403.896" y1="306.000" x2="458.167" y2="400.000" stroke="#5b4a2f" stroke-width="1.400" stroke-linecap="round"/>
<line x1="403.896" y1="306.000" x2="512.438" y2="306.000" stroke="#5b4a2f" stroke-width="1.400" stroke-linecap="round"/>
<line x1="458.167" y1="212.000" x2="512.438" y2="118.000" stroke="#5b4a2f" stroke-width="1.400" stroke-linecap="round"/>
<line x1="458.167" y1="212.000" x2="512.438" y2="306.000" stroke="#5b4a2f" stroke-width="1.400" stroke-linecap="round"/>
<line x1="458.167" y1="212.000" x2="566.709" y2="212.000" stroke="#5b4a2f" stroke-width="1.400" stroke-linecap="round"/>
<line x1="512.438" y1="118.000" x2="566.709" y2="212.000" stroke="#5b4a2f" stroke-width="1.400" stroke-linecap="round"/>
<line x1="295.355" y1="682.000" x2="349.626" y2="588.000" stroke="#5b4a2f" stroke-width="1.400" stroke-linecap="round"/>
<line x1="295.355" y1="682.000" x2="349.626" y2="776.000" stroke="#5b4a2f" stroke-width="1.400" stroke-linecap="round"/>
<line x1="295.355" y1="682.000" x2="403.896" y2="682.000" stroke="#5b4a2f" stroke-width="1.400" stroke-linecap="round"/>
<line x1="349.626" y1="588.000" x2="403.896" y2="494.000" stroke="#5b4a2f" stroke-width="1.400" stroke-linecap="round"/>
<line x1="349.626" y1="588.000" x2="403.896" y2="682.000" stroke="#5b4a2f" stroke-width="1.400" stroke-linecap="round"/>
<line x1="349.626" y1="588.000" x2="458.167" y2="588.000" stroke="#5b4a2f" stroke-width="1.400" stroke-linecap="round"/>
<line x1="403.896" y1="494.000" x2="458.167" y2="400.000" stroke="#5b4a2f" stroke-width="1.400" stroke-linecap="round"/>
<line x1="403.896" y1="494.000" x2="458.167" y2="588.000" stroke="#5b4a2f" stroke-width="1.400" stroke-linecap="round"/>
<line x1="403.896" y1="494.000" x2="512.438" y2="494.000" stroke="#5b4a2f" stroke-width="1.400" stroke-linecap="round"/>
<line x1="458.167" y1="400.000" x2="512.438" y2="306.000" stroke="#5b4a2f" stroke-width="1.400" stroke-linecap="round"/>
<line x1="458.167" y1="400.000" x2="512.438" y2="494.000" stroke="#5b4a2f" stroke-width="1.400" stroke-linecap="round"/>
<line x1="458.167" y1="400.000" x2="566.709" y2="400.000" stroke="#5b4a2f" stroke-width="1.400" stroke-linecap="round"/>
<line x1="512.438" y1="306.000" x2="566.709" y2="212.000" stroke="#5b4a2f" stroke-width="1.400" stroke-linecap="round"/>
<line x1="512.438" y1="306.000" x2="566.709" y2="400.000" stroke="#5b4a2f" stroke-width="1.400" stroke-linecap="round"/>
<line x1="512.438" y1="306.000" x2="620.980" y2="306.000" stroke="#5b4a2f" stroke-width="1.400" stroke-linecap="round"/>
<line x1="566.709" y1="212.000" x2="620.980" y2="306.000" stroke="#5b4a2f" stroke-width="1.400" stroke-linecap="round"/>
<line x1="566.709" y1="212.000" x2="675.251" y2="212.000" stroke="#5b4a2f" stroke-width="1.400" stroke-linecap="round"/>
<line x1="349.626" y1="776.000" x2="403.896" y2="682.000" stroke="#5b4a2f" stroke-width="1.400" stroke-linecap="round"/>
<line x1="403.896" y1="682.000" x2="458.167" y2="588.000" stroke="#5b4a2f" stroke-width="1.400" stroke-linecap="round"/>
<line x1="403.896" y1="682.000" x2="512.438" y2="682.000" stroke="#5b4a2f" stroke-width="1.400" stroke-linecap="round"/>
<line x1="458.167" y1="588.000" x2="512.438" y2="494.000" stroke="#5b4a2f" stroke-width="1.400" stroke-linecap="round"/>
<line x1="458.167" y1="588.000" x2="512.438" y2="682.000" stroke="#5b4a2f" stroke-width="1.400" stroke-linecap="round"/>
<line x1="458.167" y1="588.000" x2="566.709" y2="588.000" stroke="#5b4a2f" stroke-width="1.400" stroke-linecap="round"/>
<line x1="512.438" y1="494.000" x2="566.709" y2="400.000" stroke="#5b4a2f" stroke-width="1.400" stroke-linecap="round"/>
<line x1="512.438" y1="494.000" x2="566.709" y2="588.000" stroke="#5b4a2f" stroke-width="1.400" stroke-linecap="round"/>
<line x1="512.438" y1="494.000" x2="620.980" y2="494.000" stroke="#5b4a2f" stroke-width="1.400" stroke-linecap="round"/>
<line x1="566.709" y1="400.000" x2="620.980" y2="306.000" stroke="#5b4a2f" stroke-width="1.400" stroke-linecap="round"/>
<line x1="566.709" y1="400.000" x2="620.980" y2="494.000" stroke="#5b4a2f" stroke-width="1.400" stroke-linecap="round"/>
<line x1="566.709" y1="400.000" x2="675.251" y2="400.000" stroke="#5b4a2f" stroke-width="1.400" stroke-linecap="round"/>
<line x1="620.980" y1="306.000" x2="675.251" y2="212.000" stroke="#5b4a2f" stroke-width="1.400" stroke-linecap="round"/>
<line x1="620.980" y1="306.000" x2="675.251" y2="400.000" stroke="#5b4a2f" stroke-width="1.400" stroke-linecap="round"/>
<line x1="512.438" y1="682.000" x2="566.709" y2="588.000" stroke="#5b4a2f" stroke-width="1.400" stroke-linecap="round"/>
<line x1="566.709" y1="588.000" x2="620.980" y2="494.000" stroke="#5b4a2f" stroke-width="1.400" stroke-linecap="round"/>
<line x1="566.709" y1="588.000" x2="675.251" y2="588.000" stroke="#5b4a2f" stroke-width="1.400" stroke-linecap="round"/>
<line x1="620.980" y1="494.000" x2="675.251" y2="400.000" stroke="#5b4a2f" stroke-width="1.400" stroke-linecap="round"/>
<line x1="620.980" y1="494.000" x2="675.251" y2="588.000" stroke="#5b4a2f" stroke-width="1.400" stroke-linecap="round"/>
</svg>